/* XPM */
static char *archlinux[] = {
/* columns rows colors chars-per-pixel */
"20 20 38 1 ",
"  c None",
". c #1793D1",
"X c #1B95D2",
"o c #1F97D3",
"O c #2097D3",
"+ c #2298D3",
"@ c #2398D3",
"# c #2399D4",
"$ c #259AD4",
"% c #279AD4",
"& c #289BD4",
"* c #289BD5",
"= c #2A9CD5",
"- c #2B9CD5",
"; c #2B9DD5",
": c #2C9DD5",
"> c #2F9ED6",
", c #319FD6",
"< c #32A0D6",
"1 c #33A0D6",
"2 c #34A1D7",
"3 c #36A2D7",
"4 c #37A2D7",
"5 c #38A2D7",
"6 c #3BA4D8",
"7 c #3CA4D8",
"8 c #3EA5D9",
"9 c #40A6D9",
"0 c #42A7D9",
"q c #44A8DA",
"w c #45A8DA",
"e c #46A9DA",
"r c #49ABDB",
"t c #4EADDC",
"y c #53AFDD",
"u c #55B0DD",
"i c #56B0DE",
"p c #57B1DE",
/* pixels */
"                    ",
"         .*         ",
"         .$         ",
"         XX         ",
"        *@o1        ",
"        ,>$-        ",
"        44>-8       ",
"       e06514       ",
"      ytre054q      ",
"      uuq,-*-4      ",
"     u8O......@     ",
"     $.........     ",
"    ....   .....    ",
"    ....    ....    ",
"   .....    .....   ",
"  ......    .....   ",
"  .....      .....  ",
" ...           .... ",
" .               .. ",
"                    "
};
