/* XPM */
static char *arch_haskell_logo[] = {
/* columns rows colors chars-per-pixel */
"20 20 34 1 ",
"  c None",
". c #4B5457",
"X c #4C5558",
"o c #4D5659",
"O c #4E575A",
"+ c #50585B",
"@ c #515A5D",
"# c #535B5E",
"$ c #535C5F",
"% c #545D5F",
"& c #545D60",
"* c #565E61",
"= c #565F62",
"- c #575F62",
"; c #576063",
": c #586063",
"> c #586164",
", c #596164",
"< c #5B6366",
"1 c #5C6467",
"2 c #5D6568",
"3 c #5E6668",
"4 c #5E6669",
"5 c #5F676A",
"6 c #61696B",
"7 c #636A6D",
"8 c #636B6E",
"9 c #646C6E",
"0 c #656C6F",
"q c #656D6F",
"w c #666D70",
"e c #697073",
"r c #6A7274",
"t c #71787A",
/* pixels */
"                    ",
"         .&         ",
"         .&         ",
"         .Xq        ",
"        @XX1        ",
"        &%@&        ",
"        <&&&w       ",
"       555<:5       ",
"      qq6665<e      ",
"      re6<:&&5      ",
"     tq$X.....%     ",
"     & . ......     ",
"    ...   ......    ",
"    ...       ...   ",
"   X....   .  ...   ",
"  .....     .....   ",
"  ....       .....  ",
" ....          .... ",
" ..              .. ",
"                    "
};
