/* XPM */
static char *haskell_icon_3[] = {
/* columns rows colors chars-per-pixel */
"22 22 6 1 ",
"  c None",
". c #453A62",
"X c #5E5086",
"o c #8C4E8B",
"O c #8D4E8B",
"+ c #8F4E8B",
/* pixels */
"                      ",
"                      ",
"                      ",
"....  XXXX            ",
" .... XXXX            ",
"  ...  XXX            ",
"  .... XXXX           ",
"  ..... XXXX          ",
"   ..... XXX oo+++++++",
"    .... XXXX o+++++++",
"    ..... XXXX        ",
"    ..... XXXX        ",
"    .... XXXXXX  +++++",
"   ..... XXXXXXX +++++",
"  ..... XXXX XXX      ",
"  .... XXXX  XXXX     ",
"  ...  XXX    XXXX    ",
" .... XXXX     XXXX   ",
"....  XXXX      XX    ",
"                      ",
"                      ",
"                      "
};
