/* XPM */
static char *xmonad_icon[] = {
/* columns rows colors chars-per-pixel */
"13 20 11 1 ",
"  c None",
". c black",
"X c #010101",
"o c #151515",
"O c #171717",
"+ c #232323",
"@ c #696969",
"# c #A30700",
"$ c #EE0A00",
"% c #999999",
"& c #AEAEAE",
/* pixels */
" ..       && ",
"  ..     &&& ",
"  ...    &&  ",
"   ..   &&   ",
"    .. &&&   ",
"    ..+%&    ",
"     .o@     ",
"     ..o     ",
"     ...     ",
"    .. ..    ",
"   ... ...   ",
"   ..   ..   ",
"  ..     ..  ",
" ..       .. ",
" .         . ",
"#            ",
"  $   $   $$$",
"   $  $$     ",
" $$  $   $$$$",
"$            "
};
